<?xml version="1.0" encoding="iso-8859-1"?>
<!-- Uploaded to: SVG Repo, www.svgrepo.com, Generator: SVG Repo Mixer Tools -->
<svg version="1.1" id="Layer_1" xmlns="http://www.w3.org/2000/svg" xmlns:xlink="http://www.w3.org/1999/xlink" 
	 viewBox="0 0 512 512" xml:space="preserve">
<circle style="fill:#FFD07D;" cx="256" cy="256" r="256"/>
<path style="fill:#415E72;" d="M49.176,340.8V79.072c0.08-4.616,3.808-8.336,8.424-8.408h396.8c4.608,0.08,8.32,3.792,8.4,8.4V340.8
	H49.176z"/>
<g>
	<path style="fill:#FFFFFF;" d="M462.824,340.8v33.6c-0.08,4.608-3.792,8.32-8.4,8.4H57.6c-4.608-0.08-8.32-3.792-8.4-8.4v-33.6
		H462.824z"/>
	<rect x="167.456" y="442.32" style="fill:#FFFFFF;" width="177.12" height="8.4"/>
</g>
<polygon style="fill:#AAC1CE;" points="314.816,442.296 197.184,442.296 205.584,382.84 306.416,382.84 "/>
<rect x="65.984" y="87.472" style="fill:#FFFFFF;" width="380" height="236.552"/>
<polygon style="fill:#8BA0AE;" points="306.416,382.84 205.584,382.84 200.896,416.024 307.92,393.52 "/>
<g>
	<path style="fill:#25B6D2;" d="M111.8,149.6h14.6v2.936h-11.096v9.064H125.6v2.896h-10.296v12.288h-3.496L111.8,149.6z"/>
	<path style="fill:#25B6D2;" d="M147.68,166.84c0.456,5.24-3.424,9.864-8.664,10.32c-0.344,0.032-0.696,0.04-1.048,0.032
		c-5.12,0.056-9.32-4.048-9.368-9.168c0-0.272,0.008-0.544,0.024-0.824c-0.488-5.232,3.36-9.872,8.6-10.36
		c0.352-0.032,0.712-0.048,1.064-0.04c5.096-0.112,9.32,3.936,9.424,9.032C147.72,166.168,147.712,166.504,147.68,166.84z
		 M132.208,167.032c0,4.272,2.456,7.496,5.92,7.496s5.92-3.2,5.92-7.568c0-3.304-1.656-7.496-5.84-7.496
		S132.208,163.336,132.208,167.032L132.208,167.032z"/>
	<path style="fill:#25B6D2;" d="M152.128,163.336c0-2.296,0-4.272-0.16-6.088h3.104l0.12,3.832h0.168
		c0.688-2.44,2.864-4.16,5.4-4.264c0.336,0,0.68,0.04,1.008,0.12v3.344c-0.4-0.088-0.8-0.128-1.208-0.12
		c-2.504,0.096-4.544,2.048-4.752,4.544c-0.104,0.544-0.16,1.104-0.168,1.656v10.4h-3.504L152.128,163.336z"/>
	<path style="fill:#25B6D2;" d="M181.776,157.248c-0.088,1.416-0.168,2.984-0.168,5.36v11.32c0.408,3.232-0.608,6.48-2.784,8.904
		c-1.992,1.632-4.52,2.464-7.088,2.336c-2.264,0.064-4.512-0.488-6.488-1.6l0.88-2.696c1.728,1.024,3.712,1.552,5.72,1.528
		c3.624,0,6.288-1.888,6.288-6.816v-2.168h-0.088c-1.328,2.128-3.696,3.368-6.2,3.264c-4.808-0.216-8.528-4.296-8.304-9.104
		c0.008-0.128,0.016-0.256,0.024-0.376c-0.552-5.136,3.16-9.76,8.304-10.312c0.168-0.016,0.336-0.032,0.496-0.04
		c2.512-0.144,4.888,1.176,6.088,3.384h0.08l0.168-2.944L181.776,157.248z M178.104,164.944c0.016-0.544-0.048-1.08-0.192-1.6
		c-0.616-2.224-2.648-3.76-4.96-3.752c-3.384,0-5.8,2.864-5.8,7.376c0,3.832,1.928,7.008,5.76,7.008
		c2.248-0.008,4.24-1.48,4.912-3.624c0.192-0.608,0.288-1.248,0.28-1.888L178.104,164.944z"/>
	<path style="fill:#25B6D2;" d="M205.12,166.84c0.456,5.24-3.424,9.864-8.664,10.32c-0.344,0.032-0.696,0.04-1.048,0.032
		c-5.12,0.056-9.32-4.048-9.368-9.168c0-0.272,0.008-0.544,0.024-0.824c-0.488-5.232,3.36-9.872,8.6-10.36
		c0.352-0.032,0.712-0.048,1.064-0.04c5.096-0.112,9.32,3.936,9.424,9.032C205.16,166.168,205.152,166.504,205.12,166.84z
		 M189.648,167.032c0,4.272,2.456,7.496,5.92,7.496s5.92-3.2,5.92-7.568c0-3.304-1.656-7.496-5.84-7.496s-5.992,3.872-5.992,7.576
		L189.648,167.032z"/>
	<path style="fill:#25B6D2;" d="M213.848,151.656v5.6h5.08v2.704h-5.08v10.512c0,2.4,0.688,3.784,2.656,3.784
		c0.696,0.016,1.384-0.064,2.056-0.24l0.168,2.664c-1.008,0.352-2.072,0.52-3.144,0.488c-1.432,0.088-2.84-0.456-3.832-1.496
		c-1.08-1.464-1.568-3.272-1.368-5.08v-10.64h-3.024v-2.704h3.04v-4.672L213.848,151.656z"/>
	<path style="fill:#25B6D2;" d="M231.552,149.92c2.224-0.36,4.472-0.536,6.728-0.52c2.728-0.208,5.432,0.592,7.608,2.256
		c1.6,1.448,2.48,3.528,2.4,5.68c0.104,2.136-0.648,4.224-2.096,5.8c-2.248,2.08-5.248,3.16-8.304,2.984
		c-0.944,0.032-1.896-0.048-2.824-0.24v10.872h-3.496L231.552,149.92z M235.056,163.016c0.952,0.216,1.928,0.312,2.904,0.28
		c4.224,0,6.808-2.056,6.808-5.808c0-3.584-2.536-5.312-6.4-5.312c-1.112-0.032-2.216,0.064-3.304,0.28L235.056,163.016z"/>
	<path style="fill:#25B6D2;" d="M262.592,176.752l-0.28-2.464h-0.12c-1.408,1.872-3.624,2.952-5.96,2.904
		c-3.088,0.2-5.752-2.136-5.952-5.216c-0.008-0.128-0.016-0.256-0.016-0.384c0-4.712,4.192-7.288,11.728-7.248v-0.408
		c0.296-2.192-1.24-4.2-3.432-4.496c-0.328-0.048-0.664-0.048-1-0.008c-1.792,0.008-3.552,0.504-5.08,1.448l-0.8-2.336
		c1.928-1.16,4.144-1.76,6.4-1.728c5.96,0,7.416,4.064,7.416,8v7.288c-0.024,1.56,0.08,3.128,0.32,4.672L262.592,176.752z
		 M262.072,166.8c-3.864-0.08-8.256,0.608-8.256,4.392c-0.144,1.728,1.144,3.248,2.88,3.392c0.152,0.016,0.312,0.016,0.464,0
		c2.112,0.056,4.024-1.264,4.712-3.264c0.128-0.36,0.192-0.744,0.2-1.128V166.8z"/>
	<path style="fill:#25B6D2;" d="M270.72,173.128c1.4,0.88,3.016,1.368,4.672,1.408c2.576,0,3.784-1.288,3.784-2.896
		s-1.008-2.616-3.624-3.584c-3.496-1.248-5.16-3.2-5.16-5.512c0.136-3.32,2.944-5.896,6.264-5.76
		c0.152,0.008,0.312,0.016,0.464,0.04c1.68-0.016,3.328,0.392,4.8,1.2l-0.88,2.576c-1.2-0.744-2.584-1.128-4-1.128
		c-2.096,0-3.264,1.208-3.264,2.656c0,1.6,1.168,2.336,3.712,3.304c3.384,1.288,5.12,2.984,5.12,5.88c0,3.424-2.664,5.84-7.296,5.84
		c-1.912,0.04-3.8-0.424-5.48-1.336L270.72,173.128z"/>
	<path style="fill:#25B6D2;" d="M286.656,173.128c1.4,0.88,3.016,1.368,4.672,1.408c2.576,0,3.784-1.288,3.784-2.896
		s-1.008-2.616-3.624-3.584c-3.496-1.248-5.16-3.2-5.16-5.512c0.136-3.32,2.944-5.896,6.264-5.76
		c0.152,0.008,0.312,0.016,0.464,0.04c1.68-0.016,3.328,0.392,4.8,1.2l-0.88,2.576c-1.2-0.744-2.584-1.128-4-1.128
		c-2.096,0-3.264,1.208-3.264,2.656c0,1.6,1.168,2.336,3.712,3.304c3.384,1.288,5.12,2.984,5.12,5.88c0,3.424-2.664,5.84-7.296,5.84
		c-1.912,0.04-3.8-0.424-5.48-1.336L286.656,173.128z"/>
	<path style="fill:#25B6D2;" d="M304.48,157.248l2.576,9.912c0.56,2.168,1.088,4.184,1.456,6.2h0.12
		c0.448-1.976,1.088-4.072,1.736-6.168l3.2-9.952h2.984l3.016,9.752c0.728,2.336,1.288,4.392,1.736,6.4h0.128
		c0.376-2.136,0.872-4.248,1.488-6.328l2.784-9.792h3.504l-6.288,19.504h-3.2l-2.984-9.304c-0.68-2.176-1.248-4.112-1.736-6.4h-0.08
		c-0.464,2.184-1.056,4.336-1.776,6.448L310,176.784h-3.2l-5.88-19.496L304.48,157.248z"/>
	<path style="fill:#25B6D2;" d="M349.944,166.84c0.456,5.24-3.424,9.864-8.664,10.32c-0.344,0.032-0.696,0.04-1.048,0.032
		c-5.12,0.056-9.32-4.048-9.368-9.168c0-0.272,0.008-0.544,0.024-0.824c-0.488-5.232,3.36-9.872,8.6-10.36
		c0.352-0.032,0.712-0.048,1.064-0.04c5.096-0.112,9.32,3.936,9.424,9.032C349.984,166.168,349.976,166.504,349.944,166.84z
		 M334.472,167.032c0,4.272,2.456,7.496,5.92,7.496s5.92-3.2,5.92-7.568c0-3.304-1.656-7.496-5.84-7.496
		S334.472,163.336,334.472,167.032L334.472,167.032z"/>
	<path style="fill:#25B6D2;" d="M354.4,163.336c0-2.296,0-4.272-0.16-6.088h3.104l0.12,3.832h0.136c0.688-2.44,2.864-4.16,5.4-4.264
		c0.336,0,0.68,0.04,1.008,0.12v3.344c-0.4-0.088-0.8-0.128-1.208-0.12c-2.504,0.096-4.544,2.048-4.752,4.544
		c-0.104,0.544-0.16,1.104-0.168,1.656v10.4h-3.48V163.336z"/>
	<path style="fill:#25B6D2;" d="M384,148.152v23.56c0,1.736,0,3.712,0.16,5.04h-3.2l-0.168-3.384h-0.08
		c-1.296,2.448-3.88,3.944-6.648,3.832c-4.904-0.272-8.656-4.464-8.384-9.368c0.008-0.184,0.024-0.368,0.048-0.544
		c-0.656-5.104,2.96-9.776,8.064-10.424c0.232-0.032,0.464-0.048,0.696-0.064c2.352-0.144,4.6,0.992,5.88,2.976h0.08v-11.624H384z
		 M380.456,165.192c0.008-0.504-0.048-1.008-0.168-1.496c-0.52-2.408-2.656-4.12-5.12-4.112c-3.664,0-5.832,3.2-5.832,7.536
		c0,3.944,1.928,7.2,5.76,7.2c2.512-0.008,4.672-1.776,5.192-4.232c0.12-0.504,0.176-1.016,0.168-1.528V165.192z"/>
	<path style="fill:#25B6D2;" d="M392.6,169.056L392.52,168c-0.176-2.568,0.728-5.096,2.496-6.968
		c1.576-1.44,2.576-3.392,2.824-5.512c0-2.056-1.288-3.432-3.824-3.472c-1.456-0.008-2.872,0.432-4.072,1.248l-0.968-2.536
		c1.728-1.08,3.728-1.632,5.76-1.6c3.256-0.432,6.248,1.864,6.68,5.128c0.032,0.264,0.048,0.528,0.048,0.792
		c-0.248,2.68-1.48,5.184-3.464,7.008c-1.552,1.576-2.384,3.712-2.296,5.92v1.048L392.6,169.056L392.6,169.056z M391.72,174.696
		c-0.072-1.32,0.936-2.456,2.264-2.536c0.048,0,0.096,0,0.136,0c1.392-0.064,2.568,1.008,2.64,2.4c0.064,1.392-1.008,2.568-2.4,2.64
		c-1.392,0.064-2.568-1.008-2.64-2.4C391.72,174.76,391.72,174.728,391.72,174.696z"/>
</g>
<rect x="167.456" y="213.12" style="fill:#32BEA6;" width="177.12" height="61.672"/>
<polygon style="fill:#88D8C9;" points="167.456,252.136 167.456,213.112 206.48,213.112 "/>
<g>
	<path style="fill:#FFFFFF;" d="M219.264,232.48c1.912-0.336,3.848-0.496,5.792-0.48c2.416-0.248,4.832,0.44,6.768,1.904
		c1.224,1.144,1.888,2.768,1.832,4.44c0.032,2.752-1.768,5.184-4.408,5.96v0.112c1.912,0.84,3.224,2.64,3.44,4.712
		c0.408,2.184,1.008,4.328,1.8,6.4h-3.12c-0.712-1.808-1.248-3.688-1.6-5.6c-0.696-3.2-1.936-4.44-4.68-4.544h-2.84v10.128h-3.016
		L219.264,232.48z M222.28,243.12h3.088c3.2,0,5.272-1.768,5.272-4.44c0-3.016-2.184-4.328-5.376-4.368
		c-1-0.032-2.008,0.064-2.984,0.28V243.12z"/>
	<path style="fill:#FFFFFF;" d="M239.656,247.696c-0.264,2.96,1.928,5.568,4.888,5.824c0.288,0.024,0.584,0.024,0.872,0.008
		c1.592,0.048,3.176-0.248,4.648-0.864l0.512,2.176c-1.776,0.736-3.68,1.096-5.6,1.04c-4.288,0.272-7.992-2.984-8.264-7.272
		c-0.024-0.392-0.024-0.792,0.016-1.184c-0.504-4.472,2.704-8.504,7.176-9.008c0.232-0.024,0.456-0.04,0.688-0.048
		c3.92,0.072,7.048,3.312,6.976,7.232c-0.008,0.224-0.016,0.448-0.048,0.672c0,0.48-0.04,0.952-0.104,1.424L239.656,247.696
		L239.656,247.696z M248.6,245.52c0.344-2.376-1.312-4.576-3.68-4.92c-0.176-0.024-0.36-0.04-0.544-0.04
		c-2.608,0.192-4.64,2.344-4.68,4.96L248.6,245.52L248.6,245.52z"/>
	<path style="fill:#FFFFFF;" d="M254.912,252.416c1.2,0.752,2.584,1.168,4,1.208c2.216,0,3.264-1.112,3.264-2.496
		s-0.864-2.248-3.128-3.08c-3.016-1.08-4.44-2.744-4.44-4.752c0.12-2.856,2.528-5.08,5.384-4.96
		c0.136,0.008,0.272,0.016,0.408,0.032c1.44-0.016,2.864,0.352,4.128,1.048l-0.76,2.216c-1.032-0.64-2.224-0.976-3.44-0.976
		c-1.8,0-2.808,1.04-2.808,2.288c0,1.392,1.008,2.016,3.2,2.84c2.912,1.112,4.408,2.56,4.408,5.064c0,2.944-2.288,5.024-6.272,5.024
		c-1.648,0.032-3.272-0.36-4.72-1.144L254.912,252.416z"/>
	<path style="fill:#FFFFFF;" d="M270.744,247.696c-0.264,2.96,1.928,5.568,4.888,5.824c0.288,0.024,0.584,0.024,0.872,0.008
		c1.592,0.048,3.176-0.248,4.648-0.864l0.512,2.176c-1.776,0.736-3.68,1.096-5.6,1.04c-4.288,0.272-7.992-2.984-8.264-7.272
		c-0.024-0.392-0.024-0.792,0.016-1.184c-0.504-4.472,2.704-8.504,7.176-9.008c0.232-0.024,0.456-0.04,0.688-0.048
		c3.92,0.072,7.048,3.312,6.976,7.232c-0.008,0.224-0.016,0.448-0.048,0.672c0,0.48-0.04,0.952-0.104,1.424L270.744,247.696
		L270.744,247.696z M279.688,245.52c0.344-2.376-1.312-4.576-3.68-4.92c-0.176-0.024-0.36-0.04-0.544-0.04
		c-2.608,0.192-4.64,2.344-4.68,4.96L279.688,245.52L279.688,245.52z"/>
	<path style="fill:#FFFFFF;" d="M290.088,233.928v4.8h4.368v2.328h-4.368v9.048c0,2.08,0.592,3.256,2.288,3.256
		c0.6,0.008,1.2-0.056,1.776-0.208l0.136,2.288c-0.872,0.304-1.784,0.448-2.704,0.416c-1.232,0.08-2.432-0.392-3.288-1.28
		c-0.928-1.256-1.344-2.816-1.176-4.368v-9.128h-2.6v-2.328h2.6v-4L290.088,233.928z"/>
</g>
</svg>